<?xml version="1.0" encoding="UTF-8" standalone="no"?>
<!-- Created with Inkscape (http://www.inkscape.org/) -->

<svg
   width="10.583333mm"
   height="10.552328mm"
   viewBox="0 0 10.583333 10.552328"
   version="1.1"
   id="svg1"
   xmlns="http://www.w3.org/2000/svg"
   xmlns:svg="http://www.w3.org/2000/svg">
  <defs
     id="defs1" />
  <g
     id="layer1"
     transform="translate(-26.825753,-64.14234)">
    <path
       id="path1"
       style="fill:#0000ff;stroke-width:0.328188"
       d="m 32.500342,64.142338 v 0.663526 a 4.6302085,4.6302085 0 0 1 0.437699,0.06925 l 0.172083,-0.642338 a 5.2916665,5.2916665 0 0 0 -0.609782,-0.09043 z m -0.765845,0.01189 a 5.2916665,5.2916665 0 0 0 -4.908744,5.264278 5.2916665,5.2916665 0 0 0 1.307414,3.442684 l 0.478007,-0.478007 a 4.6302085,4.6302085 0 0 1 -1.123963,-2.964677 4.6302085,4.6302085 0 0 1 4.247286,-4.599719 z m 2.115117,0.278019 -0.171049,0.638721 a 4.6302085,4.6302085 0 0 1 0.402559,0.179834 l 0.33383,-0.57826 a 5.2916665,5.2916665 0 0 0 -0.56534,-0.240295 z m 1.230415,0.620634 -0.334346,0.578259 a 4.6302085,4.6302085 0 0 1 0.340031,0.277503 l 0.47749,-0.477491 a 5.2916665,5.2916665 0 0 0 -0.483175,-0.378271 z m 1.027328,0.917257 -0.47749,0.47749 a 4.6302085,4.6302085 0 0 1 1.117761,2.970878 4.6302085,4.6302085 0 0 1 -4.247286,4.600236 v 0.675928 a 5.2916665,5.2916665 0 0 0 4.908744,-5.276164 5.2916665,5.2916665 0 0 0 -1.301729,-3.448368 z m -3.989937,0.180867 a 3.3072917,3.3072917 0 0 0 -3.307292,3.307292 3.3072917,3.3072917 0 0 0 3.307292,3.307292 3.3072917,3.3072917 0 0 0 3.307291,-3.307292 3.3072917,3.3072917 0 0 0 -3.307291,-3.307292 z m -2.961577,6.770646 -0.478007,0.478007 a 5.2916665,5.2916665 0 0 0 0.481625,0.375688 l 0.334863,-0.579293 a 4.6302085,4.6302085 0 0 1 -0.338481,-0.274402 z m 1.00304,0.654224 -0.334347,0.578776 a 5.2916665,5.2916665 0 0 0 0.562757,0.239262 l 0.171565,-0.639754 a 4.6302085,4.6302085 0 0 1 -0.399975,-0.178284 z m 1.140499,0.374137 -0.172083,0.642855 a 5.2916665,5.2916665 0 0 0 0.607198,0.08992 v -0.664042 a 4.6302085,4.6302085 0 0 1 -0.435115,-0.06873 z" />
  </g>
</svg>
