<?xml version="1.0" encoding="UTF-8" standalone="no"?>
<!-- Created with Inkscape (http://www.inkscape.org/) -->

<svg
   width="48"
   height="48"
   viewBox="0 0 12.7 12.7"
   version="1.1"
   id="svg1"
   xmlns="http://www.w3.org/2000/svg"
   xmlns:svg="http://www.w3.org/2000/svg">
  <defs
     id="defs1" />
  <g
     id="layer1"
     transform="translate(-25.628926,-69.009742)">
    <path
       id="circle1"
       style="fill:#0277bd;fill-opacity:1;stroke-width:0.0884179"
       d="m 31.978868,69.009741 a 6.3500015,6.3500015 0 0 0 -2.809082,0.667357 l 0.502075,0.869668 a 5.346131,5.346131 0 0 1 2.307007,-0.533109 5.346131,5.346131 0 0 1 5.346144,5.346143 5.346131,5.346131 0 0 1 -0.541221,2.302306 l 0.871314,0.503014 a 6.3500015,6.3500015 0 0 0 0.673822,-2.80532 6.3500015,6.3500015 0 0 0 -6.350059,-6.350059 z m -3.518758,1.072332 a 6.3500015,6.3500015 0 0 0 -0.666535,0.514536 l 0.722373,0.722373 a 5.346131,5.346131 0 0 1 0.448823,-0.362774 z m 3.518876,0.95513 a 4.3225787,4.3225787 0 0 0 -4.322597,4.322597 4.3225787,4.3225787 0 0 0 4.322597,4.322597 4.3225787,4.3225787 0 0 0 4.322596,-4.322597 4.3225787,4.3225787 0 0 0 -4.322596,-4.322597 z m -4.760722,0.139655 A 6.3500015,6.3500015 0 0 0 26.7089,71.845391 l 0.884715,0.510774 a 5.346131,5.346131 0 0 1 0.344317,-0.459521 z m -0.915397,1.377504 a 6.3500015,6.3500015 0 0 0 -0.67394,2.805438 6.3500015,6.3500015 0 0 0 6.349941,6.34994 6.3500015,6.3500015 0 0 0 2.8092,-0.667357 l -0.498431,-0.863202 a 5.346131,5.346131 0 0 1 -2.310769,0.52688 5.346131,5.346131 0 0 1 -5.346026,-5.346261 5.346131,5.346131 0 0 1 0.545571,-2.299954 z m 10.067014,5.812246 a 5.346131,5.346131 0 0 1 -0.344787,0.46152 l 0.714614,0.714613 a 6.3500015,6.3500015 0 0 0 0.509363,-0.668532 z m -0.921862,1.040006 a 5.346131,5.346131 0 0 1 -0.450234,0.364772 l 0.500077,0.866141 a 6.3500015,6.3500015 0 0 0 0.666417,-0.514536 z" />
  </g>
</svg>
